# xmcd
#
# Track frame offsets: 
#        150
#        12355
#        21723
#        34248
#        48630
#        64011
#        78453
#        97227
#        109996
#        125274
#        131371
#        146183
#        154177
#        174877
#
# Disc length: 2520 seconds
#
# Revision: 1
# Processed by: cddbd v1.5.2PL0 Copyright (c) Steve Scherf et al.
# Submitted via: ExactAudioCopy v1.3
#
DISCID=c709d60e
DTITLE=Thomas Denver Jonsson - The Lake Acts Like An Ocean
DYEAR=2007
DGENRE=Folk
TTITLE0=The Border
TTITLE1=My Wardrobe
TTITLE2=What I Dream
TTITLE3=Only for Beginners
TTITLE4=Saved by the Bell
TTITLE5=Like Friends Falling in Love
TTITLE6=One of My Blessings
TTITLE7=Possession
TTITLE8=You Were the Holiday
TTITLE9=The Tapdancers' Union
TTITLE10=After the Earthquake
TTITLE11=Sacha Distel
TTITLE12=She Runs in Slow Motion
TTITLE13=Love Campaign
EXTD=YEAR: 2007
EXTT0=
EXTT1=
EXTT2=
EXTT3=
EXTT4=
EXTT5=
EXTT6=
EXTT7=
EXTT8=
EXTT9=
EXTT10=
EXTT11=
EXTT12=
EXTT13=
PLAYORDER=
